<svg version="1.1" id="Layer_1" xmlns="http://www.w3.org/2000/svg" xmlns:xlink="http://www.w3.org/1999/xlink" x="0px" y="0px"
	 width="100%" viewBox="0 0 960 736" enable-background="new 0 0 960 736" xml:space="preserve">
<path fill="#000000" opacity="1.000000" stroke="none" 
	d="
M466.210876,497.412048 
	C452.560028,499.640137 439.348206,501.829041 426.109192,503.838959 
	C423.494629,504.235931 421.567078,505.328613 419.576385,507.014099 
	C414.765320,511.087463 410.032318,515.308716 404.283600,518.137634 
	C401.303314,519.604187 398.187836,520.966553 395.597534,518.064331 
	C393.219086,515.399536 391.693146,512.163574 394.370667,508.583282 
	C394.720673,508.115265 394.684265,507.358246 394.892670,506.447052 
	C387.453430,505.056610 380.941772,501.762909 374.389984,498.537628 
	C368.663574,495.718628 364.186676,491.502136 361.336090,485.925110 
	C359.557922,482.446136 356.131683,480.535675 354.486877,476.856995 
	C352.615143,472.670685 351.758850,468.146393 351.231354,463.988342 
	C348.741425,444.361298 347.058105,424.650146 350.333923,404.855194 
	C353.971680,382.873047 362.265961,362.966705 375.687653,345.187439 
	C376.067139,344.684723 376.287445,344.061798 376.842072,342.994324 
	C370.787842,341.598236 365.221375,339.651306 359.700531,337.547974 
	C351.601105,334.462280 348.132416,327.361359 350.700867,319.168640 
	C354.642120,306.597046 363.282776,299.097656 375.742279,295.836121 
	C382.926941,293.955383 396.785370,301.006989 401.813141,308.699646 
	C402.619293,309.933075 403.445435,311.153473 404.508636,312.749664 
	C409.737488,309.550385 414.631470,306.262787 419.935150,303.624237 
	C426.633606,300.291779 433.856354,299.391174 440.890869,297.518250 
	C453.373596,294.194702 466.040527,296.044067 478.622253,295.719757 
	C482.179016,295.628082 484.253601,294.924469 485.780365,291.249695 
	C491.686707,277.033966 502.014465,267.374878 517.248657,264.075073 
	C526.765503,262.013763 535.624207,264.275757 543.055725,271.020782 
	C548.263855,275.747803 553.371643,280.239197 553.407288,288.325684 
	C553.442505,296.322937 549.828613,302.315369 544.830933,307.896606 
	C542.079468,310.969391 537.040833,313.293243 536.916443,317.057373 
	C536.786560,320.989929 542.344849,322.754242 545.012512,325.868744 
	C557.794556,340.791748 567.731689,357.171295 573.615601,376.166107 
	C578.172119,390.875641 579.873047,405.660858 579.508484,420.921082 
	C579.050232,440.101440 569.861755,454.792511 557.242737,468.378632 
	C551.905273,474.125214 546.530334,478.480042 538.846741,479.923676 
	C535.775696,480.500702 535.796143,482.506470 537.028137,484.816498 
	C538.772705,488.087769 540.869385,491.385742 537.443359,494.814880 
	C533.925964,498.335632 528.062622,499.284790 523.497498,497.004333 
	C521.126160,495.819824 518.861023,494.389618 516.661316,492.902679 
	C513.130798,490.516357 509.732788,489.054474 505.077606,490.010498 
	C496.187256,491.836273 487.167084,493.014954 478.447632,495.676239 
	C474.609497,496.847687 470.419922,495.622864 466.210876,497.412048 
M542.003052,282.013672 
	C542.003052,282.013672 542.027527,282.053162 541.866882,281.357819 
	C541.166321,278.809723 539.419067,277.186646 537.360901,275.608063 
	C525.831299,266.765137 506.288391,271.627930 498.795288,283.819733 
	C495.993042,288.379181 493.907867,293.271362 492.220612,298.332977 
	C490.762604,302.706818 488.006439,304.713165 483.205475,304.375244 
	C479.198151,304.093170 475.616394,302.086517 471.467285,302.315979 
	C463.212158,302.772461 454.995667,303.016846 446.717346,303.853943 
	C430.729736,305.470612 417.359589,311.443146 405.735565,322.135742 
	C402.274841,325.319153 398.964844,324.546295 398.044647,319.995422 
	C396.910828,314.388092 393.770935,310.432281 389.559937,306.951996 
	C382.362488,301.003510 369.558350,302.307587 365.318298,309.529938 
	C366.744141,311.154419 368.710632,310.576019 370.468719,310.741455 
	C378.832489,311.528473 386.846405,312.768616 389.376312,322.780029 
	C389.848541,324.648773 390.578400,326.499969 388.352417,327.516968 
	C386.296539,328.456207 384.444061,327.726776 383.106018,325.901031 
	C382.424744,324.971405 381.814941,323.141846 381.190979,323.149750 
	C375.393616,323.223175 371.600891,319.606232 367.164642,316.695953 
	C364.416718,314.893280 360.464691,316.550476 358.509308,319.667236 
	C356.534912,322.814362 358.201965,329.117584 361.509369,330.621338 
	C369.703918,334.347107 377.789612,338.582642 387.151306,338.709534 
	C388.735199,338.730988 390.717407,338.405365 391.069214,340.766174 
	C391.357483,342.700439 389.785583,343.268951 388.437836,343.918823 
	C384.423248,345.854584 381.507690,348.924652 378.971405,352.541260 
	C362.087097,376.617371 355.892151,404.115234 355.902588,432.695526 
	C355.906830,444.334564 356.344330,456.817139 360.454071,468.120361 
	C364.200470,478.424408 369.681763,487.778809 380.332733,493.228302 
	C387.956970,497.129120 395.488708,499.792206 404.106720,498.684418 
	C405.590454,498.493683 407.231903,498.612640 408.099274,500.135193 
	C409.116760,501.921234 407.832947,503.295197 406.964752,504.677307 
	C405.796600,506.537048 403.409576,507.492889 402.482544,510.565643 
	C406.679291,509.045044 409.489166,506.623871 411.895935,504.084015 
	C416.244873,499.494507 421.537994,497.643646 427.488220,496.055969 
	C432.876892,494.618134 438.338989,495.188385 443.719788,493.747589 
	C452.134918,491.494293 460.813080,489.816315 469.482788,489.029327 
	C479.142365,488.152435 488.304901,485.414368 497.688293,483.473755 
	C506.018829,481.750916 514.763733,477.818176 522.030762,486.716278 
	C523.677673,488.732788 526.824524,491.036285 530.357605,488.658600 
	C530.161865,486.122864 528.060425,485.776398 526.620239,484.870209 
	C524.921204,483.801117 522.925720,483.013855 522.859924,480.622345 
	C522.780273,477.728912 525.429932,477.492615 527.213867,476.476227 
	C528.071594,475.987549 529.051270,475.707367 529.986023,475.360535 
	C539.687256,471.761108 549.210754,467.904907 555.528198,459.001770 
	C560.715698,451.690979 566.142273,444.450806 568.636169,435.711578 
	C571.220581,426.655457 570.784363,417.260590 570.597717,407.952576 
	C570.216919,388.965363 564.625183,371.285278 555.834717,354.729889 
	C551.745850,347.029083 545.721985,340.374268 540.830383,333.074341 
	C537.762878,328.496582 533.873901,325.037537 528.950806,322.741394 
	C526.802185,321.739227 524.339722,321.054016 524.199829,318.248718 
	C524.053833,315.321899 526.467529,314.166931 528.541992,312.687866 
	C535.924622,307.424072 542.466980,301.487000 544.966614,292.194000 
	C546.097107,287.991150 545.307739,284.700226 542.003052,282.013672 
z"/>
<path fill="#000000" opacity="1.000000" stroke="none" 
	d="
M595.342468,335.925598 
	C601.026184,333.668091 606.630066,334.215088 611.921326,335.051514 
	C622.309082,336.693481 632.107544,340.550110 641.739563,344.764008 
	C648.565002,347.750031 651.051147,351.952026 650.212708,359.291901 
	C649.890503,362.112610 648.587097,363.517700 645.694031,363.367157 
	C642.720398,363.212402 641.270203,361.411987 641.843567,358.754883 
	C643.036316,353.227417 639.553711,350.926514 635.469360,349.734833 
	C627.572144,347.430634 620.300049,343.264648 611.773560,342.685425 
	C606.778870,342.346161 601.935486,341.255310 597.128723,343.393768 
	C596.825806,343.528595 596.510071,343.659210 596.186829,343.720215 
	C593.239136,344.276703 589.543396,345.311066 588.501953,341.616821 
	C587.617798,338.480621 591.097534,337.556793 593.577515,336.630737 
	C594.043152,336.456848 594.515686,336.301514 595.342468,335.925598 
z"/>
<path fill="#000000" opacity="1.000000" stroke="none" 
	d="
M463.507751,249.706360 
	C462.715790,254.161575 460.854675,257.966187 460.792206,262.220490 
	C460.760590,264.375122 459.355835,266.111542 456.987274,266.026215 
	C454.228241,265.926849 453.591949,263.885345 453.570221,261.464630 
	C453.531372,257.134796 453.813843,252.931046 455.588043,248.835403 
	C459.400238,240.035400 462.781372,231.033203 469.802582,224.074600 
	C472.882141,221.022522 476.454987,219.092163 480.824707,219.075333 
	C482.494568,219.068893 484.227112,219.692780 484.709778,221.608017 
	C485.124298,223.252747 484.433533,224.619156 482.749939,225.131531 
	C474.594971,227.613464 470.998810,234.387787 467.503845,241.246765 
	C466.147736,243.908127 464.926575,246.638260 463.507751,249.706360 
z"/>
<path fill="#000000" opacity="1.000000" stroke="none" 
	d="
M382.669189,275.653656 
	C365.493896,269.864868 348.007111,270.362823 330.592224,270.196167 
	C327.085571,270.162628 322.163086,270.266327 322.306854,266.156952 
	C322.475983,261.323608 327.629639,263.098877 330.849854,263.126587 
	C337.835266,263.186676 344.817535,263.552734 351.802277,263.753448 
	C362.625031,264.064514 373.103333,266.138611 383.310669,269.716309 
	C384.839996,270.252319 385.925476,271.081512 386.574402,272.610748 
	C386.239288,274.575623 384.535278,274.977356 382.669189,275.653656 
z"/>
<path fill="#000000" opacity="1.000000" stroke="none" 
	d="
M618.590820,469.411743 
	C614.902039,460.811493 610.241455,453.165527 605.448914,445.605011 
	C603.939209,443.223328 601.980896,441.219940 599.341614,439.867615 
	C597.859253,439.108032 596.822021,437.600952 597.545837,435.675415 
	C598.180908,433.985931 599.680176,433.886932 601.225586,433.680908 
	C604.734558,433.213013 607.496582,434.575653 609.540405,437.195221 
	C616.414673,446.006073 622.238464,455.464081 626.515381,465.822876 
	C627.110229,467.263733 627.402710,468.917908 625.900208,469.901062 
	C623.596741,471.408264 621.162842,471.114716 618.590820,469.411743 
z"/>
<path fill="#000000" opacity="1.000000" stroke="none" 
	d="
M339.782928,536.490295 
	C336.652252,533.069275 336.971710,529.122803 336.922180,525.362183 
	C336.815643,517.270447 337.397034,509.253021 340.994598,501.786987 
	C341.495483,500.747467 342.082794,499.736572 342.738953,498.787689 
	C344.054352,496.885406 345.914215,496.325623 347.963928,497.310333 
	C350.139587,498.355621 350.626068,500.268463 349.532135,502.338867 
	C346.569275,507.946228 346.348206,514.081665 345.804291,520.182861 
	C345.534393,523.210632 345.682922,526.204773 346.747345,528.996765 
	C347.579193,531.178711 349.086975,533.061462 346.877289,535.299805 
	C344.886841,537.315979 342.708405,537.860413 339.782928,536.490295 
z"/>
<path fill="#000000" opacity="1.000000" stroke="none" 
	d="
M603.340332,288.135559 
	C607.454224,287.651672 611.064087,287.755249 614.619873,288.902466 
	C616.796631,289.604767 618.574829,290.548431 618.646484,293.179138 
	C616.807678,294.997467 614.634949,294.947815 612.515442,294.618286 
	C602.887634,293.121429 594.320190,296.313568 586.011108,300.560638 
	C583.263733,301.964935 581.503540,304.463776 580.134155,307.142670 
	C578.643250,310.059387 576.466858,311.170013 573.689880,309.349701 
	C570.696228,307.387421 570.850037,304.564087 573.055725,302.080078 
	C579.446777,294.882538 587.634583,290.810089 596.962891,288.909180 
	C598.906494,288.513123 600.911865,288.419586 603.340332,288.135559 
z"/>
<path fill="#000000" opacity="1.000000" stroke="none" 
	d="
M647.384644,385.631775 
	C649.842163,387.954620 651.587524,390.368195 652.983826,393.041534 
	C653.828979,394.659546 654.016174,396.178833 652.425903,397.518036 
	C650.816101,398.873688 649.128967,399.115387 647.444580,397.796570 
	C646.276062,396.881653 645.049316,395.924896 644.201111,394.735474 
	C638.095581,386.173798 630.182373,380.316040 619.798828,378.024811 
	C619.153992,377.882568 618.553589,377.534454 617.907959,377.400970 
	C616.172913,377.042297 615.277283,375.922241 615.303528,374.250275 
	C615.332825,372.382599 616.446594,371.180908 618.236755,370.682861 
	C620.059204,370.175903 621.853088,370.343109 623.610840,371.042084 
	C632.266846,374.484222 640.893127,377.972229 647.384644,385.631775 
z"/>
<path fill="#000000" opacity="1.000000" stroke="none" 
	d="
M293.304016,421.340179 
	C292.072876,422.496277 291.156311,423.476776 290.091095,424.253418 
	C288.904114,425.118958 287.527313,425.058594 286.355652,424.221130 
	C285.146698,423.356934 284.937347,422.027496 285.270508,420.639496 
	C285.976837,417.697144 287.891907,415.473755 290.411133,414.194580 
	C299.954865,409.348602 309.205414,403.712738 320.192657,402.462463 
	C324.174377,402.009369 328.070251,401.426727 330.843292,405.276611 
	C329.353729,408.317932 327.061188,408.994995 324.205902,409.317902 
	C313.001953,410.584961 302.852570,414.760590 293.304016,421.340179 
z"/>
<path fill="#000000" opacity="1.000000" stroke="none" 
	d="
M580.156494,232.000580 
	C585.310791,230.144745 589.724304,227.118774 595.192444,227.671036 
	C597.303223,227.884216 599.919983,227.281555 600.541931,230.100235 
	C601.167297,232.934509 598.440369,233.027817 596.726257,233.766373 
	C591.092041,236.193939 585.416626,238.526062 579.783875,240.956985 
	C575.875916,242.643524 572.571899,244.904037 570.875488,249.165268 
	C569.871155,251.688187 567.796265,253.319153 564.904602,251.588516 
	C561.993286,249.846191 561.215271,247.123886 563.109497,244.335693 
	C565.656250,240.586914 569.299255,237.899460 573.200073,235.634399 
	C575.351074,234.385391 577.600891,233.306686 580.156494,232.000580 
z"/>
<path fill="#000000" opacity="1.000000" stroke="none" 
	d="
M627.463013,414.563385 
	C622.819153,406.701080 617.801575,399.885529 608.002747,399.074890 
	C606.015747,398.910492 604.286804,397.510742 604.439697,395.564270 
	C604.603760,393.475922 606.460144,392.247894 608.622498,391.929504 
	C613.151367,391.262604 617.097046,392.874756 620.846497,395.162354 
	C628.473450,399.815643 632.934875,407.307434 637.840942,414.360107 
	C639.164612,416.262970 638.061035,417.894073 635.996826,418.604218 
	C632.113037,419.940338 629.151733,418.983063 627.463013,414.563385 
z"/>
<path fill="#000000" opacity="1.000000" stroke="none" 
	d="
M310.539703,474.512451 
	C308.904846,476.854462 307.576355,478.984711 305.996185,480.908203 
	C303.888123,483.474304 301.078796,484.091492 298.530151,481.922913 
	C295.893188,479.679169 297.692139,477.638062 299.470520,475.597931 
	C305.787811,468.350677 311.187927,460.246338 319.403290,454.807556 
	C321.757568,453.248932 323.970581,451.474060 326.772339,450.742065 
	C328.967316,450.168671 331.031891,450.733734 331.864777,452.743011 
	C332.621277,454.567902 330.905426,455.589905 329.382111,456.468414 
	C321.743164,460.873932 316.063599,467.362396 310.539703,474.512451 
z"/>
<path fill="#000000" opacity="1.000000" stroke="none" 
	d="
M527.408447,229.384094 
	C523.272583,233.079224 519.999817,236.964691 517.977417,241.831665 
	C517.019775,244.136154 515.156128,245.163971 512.740234,244.262390 
	C510.433044,243.401352 510.284943,241.378586 510.667694,239.271698 
	C512.290833,230.336990 528.981812,216.213211 538.097351,216.092270 
	C540.454041,216.061005 543.292114,216.029510 543.589966,219.016647 
	C543.872253,221.847809 541.208923,222.590744 538.914368,223.153412 
	C534.654724,224.197952 530.906372,226.191177 527.408447,229.384094 
z"/>
<path fill="#000000" opacity="1.000000" stroke="none" 
	d="
M273.341736,390.329651 
	C274.036377,388.243378 275.479584,387.352020 277.037964,386.781921 
	C288.928040,382.432404 301.179474,380.682343 313.761322,382.390533 
	C316.330994,382.739441 320.492462,383.368744 320.137787,386.561646 
	C319.681366,390.670654 315.371429,389.456329 312.687408,389.028534 
	C302.359894,387.382446 292.556641,389.386810 282.764923,392.345245 
	C279.520294,393.325562 275.707611,395.481171 273.341736,390.329651 
z"/>
<path fill="#000000" opacity="1.000000" stroke="none" 
	d="
M579.669678,503.818726 
	C573.291321,503.897186 572.513306,502.901001 572.512573,497.062988 
	C572.511780,490.593933 571.893005,484.153198 570.435242,477.816162 
	C569.750366,474.838898 569.638550,471.926697 573.661011,471.401062 
	C577.633545,470.881989 578.904175,473.020477 579.698059,476.813232 
	C581.135132,483.678375 580.878296,490.669189 582.038513,497.525391 
	C582.432800,499.855255 582.588928,502.229431 579.669678,503.818726 
z"/>
<path fill="#000000" opacity="1.000000" stroke="none" 
	d="
M636.503235,312.292664 
	C632.057983,312.264862 628.066956,312.269440 624.076172,312.236206 
	C622.034424,312.219208 619.829163,312.224213 619.590088,309.463531 
	C619.342163,306.599884 621.036133,305.069733 623.708435,304.870575 
	C626.688049,304.648560 629.766479,304.329346 632.672485,304.819611 
	C640.147766,306.080688 647.847290,306.139832 655.072937,308.751495 
	C656.456909,309.251740 657.739319,310.074860 659.002625,310.855713 
	C660.384644,311.709839 661.227051,312.981873 660.652893,314.631134 
	C660.128601,316.137268 658.635986,316.460114 657.322632,316.244568 
	C651.637512,315.311615 645.974487,314.241760 640.310120,313.185638 
	C639.177551,312.974487 638.074280,312.605591 636.503235,312.292664 
z"/>
<path fill="#000000" opacity="1.000000" stroke="none" 
	d="
M437.220093,231.799667 
	C432.657135,234.982880 428.331543,233.286728 427.844330,228.300186 
	C426.977325,219.426743 428.609131,210.800171 431.033234,202.321564 
	C431.792816,199.664795 433.745911,198.006500 436.696716,198.786545 
	C439.699707,199.580383 439.582642,202.053116 439.098541,204.446732 
	C438.181396,208.981476 437.371979,213.551422 436.159943,218.009445 
	C434.884033,222.702454 435.033722,227.133759 437.220093,231.799667 
z"/>
<path fill="#000000" opacity="1.000000" stroke="none" 
	d="
M398.460327,243.556396 
	C396.339478,242.192871 394.503876,241.063446 392.702759,239.881424 
	C391.547974,239.123581 390.620636,238.177032 390.924652,236.618210 
	C391.259766,234.899750 392.504395,234.185806 394.080933,233.899826 
	C396.725586,233.420105 398.789185,234.442642 400.941010,235.990814 
	C409.091736,241.854904 415.765320,248.996368 420.875244,257.646851 
	C421.719116,259.075378 422.547791,260.444000 421.004028,261.540375 
	C419.133942,262.868500 416.909821,262.758423 414.914368,261.584106 
	C413.111359,260.523041 412.296814,258.573700 411.398102,256.841797 
	C408.472321,251.203613 403.600494,247.516281 398.460327,243.556396 
z"/>
<path fill="#000000" opacity="1.000000" stroke="none" 
	d="
M300.149139,361.268311 
	C296.714325,360.931519 293.469727,362.822296 290.461395,360.297943 
	C291.600708,356.115387 295.025177,355.316193 298.408173,354.703278 
	C311.139313,352.396606 323.930573,349.924896 335.852600,360.106842 
	C328.928986,364.072418 323.552032,359.118103 317.833710,359.163849 
	C311.924530,359.211090 306.395203,361.148254 300.149139,361.268311 
z"/>
<path fill="#000000" opacity="1.000000" stroke="none" 
	d="
M287.196411,320.821960 
	C287.274628,317.636108 289.022217,316.726440 291.498749,316.754852 
	C301.673096,316.871582 311.655975,318.332245 321.400696,321.255341 
	C322.964874,321.724548 324.414093,322.699005 324.906006,324.598480 
	C323.903778,327.128418 321.570862,327.295654 319.502289,327.051819 
	C314.572449,326.470673 309.518097,326.735291 304.736664,325.030182 
	C300.852509,323.645050 296.808197,324.424530 292.835876,324.264191 
	C290.438171,324.167358 288.056366,324.205566 287.196411,320.821960 
z"/>
<path fill="#000000" opacity="1.000000" stroke="none" 
	d="
M610.456177,253.479858 
	C603.711609,255.053925 597.724548,257.424713 592.248474,260.991730 
	C590.799561,261.935516 589.287231,262.403778 587.564758,262.372162 
	C585.663940,262.337250 583.778992,262.245728 583.173340,259.996552 
	C582.602600,257.876953 583.735535,256.453247 585.522339,255.584396 
	C593.055359,251.921295 600.196777,247.140991 609.047241,247.151657 
	C610.538025,247.153458 612.044189,247.058304 613.515259,247.237686 
	C614.977539,247.416000 616.716309,247.652435 616.875610,249.565018 
	C617.046387,251.613815 615.492249,252.424545 613.792236,252.874466 
	C612.833374,253.128189 611.833557,253.226776 610.456177,253.479858 
z"/>
<path fill="#000000" opacity="1.000000" stroke="none" 
	d="
M325.998108,495.108276 
	C324.150391,499.067780 322.783936,502.750702 322.912811,506.861908 
	C323.036835,510.818665 320.728241,512.323853 317.165344,511.549805 
	C313.768646,510.811798 312.925537,508.530731 313.920563,505.128998 
	C315.769653,498.807465 316.957642,492.267365 321.687408,487.178558 
	C323.003204,485.762878 324.305023,484.704407 326.332062,484.819580 
	C328.054718,484.917480 329.617584,485.214325 330.443390,487.006592 
	C331.243622,488.743317 330.202942,489.710052 329.121643,490.845276 
	C327.998871,492.024078 327.139008,493.453308 325.998108,495.108276 
z"/>
<path fill="#000000" opacity="1.000000" stroke="none" 
	d="
M461.380493,202.362366 
	C461.869629,206.475143 459.721161,207.647552 456.584564,207.125824 
	C453.380096,206.592789 451.275665,204.448746 452.264343,201.105881 
	C454.046844,195.078964 456.192169,189.148056 458.451141,183.279129 
	C459.301300,181.070312 461.230682,179.516296 463.652283,178.942078 
	C465.353577,178.538635 466.950165,178.723038 468.113159,180.324661 
	C469.251007,181.891556 468.437134,183.057800 467.561798,184.368973 
	C464.000458,189.703384 461.646820,195.486588 461.380493,202.362366 
z"/>
<path fill="#000000" opacity="1.000000" stroke="none" 
	d="
M505.370941,218.143631 
	C503.355957,210.548325 508.014404,205.645905 511.843536,200.611984 
	C514.089539,197.659363 516.575684,194.451691 520.850159,194.199188 
	C522.795288,194.084290 525.054565,193.959702 525.951904,196.255234 
	C526.853333,198.561203 524.727661,199.446518 523.363953,200.496216 
	C518.114075,204.537140 514.069397,209.221039 512.921997,216.118835 
	C512.122681,220.923874 508.654785,219.491470 505.370941,218.143631 
z"/>
<path fill="#000000" opacity="1.000000" stroke="none" 
	d="
M299.292084,436.482544 
	C301.905670,436.333649 303.924835,436.788696 305.345245,438.739716 
	C305.195709,440.651123 303.614838,441.384430 302.330841,441.691437 
	C294.475189,443.569611 289.930695,449.579529 285.158020,455.250244 
	C283.055603,457.748291 281.111511,459.244965 278.131836,456.700806 
	C276.193939,455.046082 275.474762,453.158569 277.541809,451.201508 
	C283.889465,445.191559 290.159363,439.035400 299.292084,436.482544 
z"/>
<path fill="#000000" opacity="1.000000" stroke="none" 
	d="
M350.854156,239.718307 
	C356.914612,242.502869 362.614838,245.145538 368.199921,248.012466 
	C369.684021,248.774307 371.971008,249.659363 371.149597,251.987671 
	C370.258636,254.513214 367.757721,254.837463 365.675201,254.072098 
	C361.319641,252.471375 357.133240,250.413452 352.861847,248.579346 
	C350.883453,247.729828 348.995331,246.672363 346.768036,246.440216 
	C343.820831,246.133041 340.461151,245.254608 341.047455,241.686554 
	C341.656708,237.978897 345.186523,238.729568 348.002991,239.175369 
	C348.823944,239.305313 349.635132,239.497040 350.854156,239.718307 
z"/>
<path fill="#000000" opacity="1.000000" stroke="none" 
	d="
M323.339447,282.328247 
	C326.630432,284.276276 329.872131,283.490387 332.975220,283.724915 
	C334.744019,283.858551 336.494324,284.203979 336.766876,286.199432 
	C337.068329,288.406342 335.256989,289.358307 333.536163,290.009888 
	C332.642883,290.348145 331.543488,290.437531 330.593933,290.285431 
	C322.166687,288.935364 313.710022,287.709930 305.357697,285.984680 
	C302.598358,285.414703 302.315735,283.149475 304.659210,281.207947 
	C305.980408,280.113342 307.637543,279.286102 309.270264,279.928864 
	C313.697845,281.672028 318.438232,281.155670 323.339447,282.328247 
z"/>
<path fill="#000000" opacity="1.000000" stroke="none" 
	d="
M657.302856,450.813568 
	C653.626038,446.944580 652.010681,442.018005 648.190918,438.656464 
	C647.048767,437.651337 646.771667,435.771332 648.149170,434.622681 
	C650.128174,432.972382 652.640869,433.402313 654.833008,434.014893 
	C658.031982,434.908813 665.604370,446.265503 665.629333,449.675751 
	C665.638733,450.962677 665.203064,451.979187 663.996094,452.500916 
	C661.526855,453.568329 659.467163,452.683014 657.302856,450.813568 
z"/>
<path fill="#000000" opacity="1.000000" stroke="none" 
	d="
M388.962982,196.224258 
	C391.828552,196.316498 393.356384,197.452484 393.902283,199.972961 
	C394.894348,204.553696 396.737915,208.811615 398.992035,212.912720 
	C400.088928,214.908432 400.814667,217.174408 398.398468,218.639969 
	C396.018799,220.083405 394.005890,218.444550 392.930817,216.613190 
	C390.002869,211.625488 387.199646,206.533447 384.810150,201.272415 
	C383.362183,198.084473 385.009430,196.190918 388.962982,196.224258 
z"/>
<path fill="#000000" opacity="1.000000" stroke="none" 
	d="
M437.548431,270.255554 
	C436.674774,267.900513 435.979401,265.876953 435.209473,263.882172 
	C434.558929,262.196747 434.313873,260.661835 436.201019,259.580414 
	C438.285370,258.385956 440.439148,258.869385 441.520447,260.622314 
	C444.727325,265.821320 447.609619,271.224548 450.500977,276.611145 
	C451.178741,277.873840 450.934052,279.373260 449.391449,279.936066 
	C447.656799,280.569000 445.709045,280.844971 444.346100,279.189880 
	C442.044983,276.395447 439.903168,273.469910 437.548431,270.255554 
z"/>
<path fill="#000000" opacity="1.000000" stroke="none" 
	d="
M477.021271,405.243317 
	C459.297333,405.287140 443.074921,409.222382 428.082001,417.861755 
	C425.945862,419.092651 423.509430,420.216003 421.829620,417.814941 
	C420.165283,415.436005 422.272369,413.525421 423.816650,411.762604 
	C425.431396,409.919250 427.726196,408.864929 429.843903,408.397797 
	C436.744202,406.875793 442.617584,402.918884 449.258636,400.750824 
	C453.953094,399.218292 458.721497,399.793732 463.446960,398.614105 
	C470.784088,396.782471 478.565399,396.554108 486.185394,396.121277 
	C489.104462,395.955444 492.881287,396.879456 492.694946,400.723206 
	C492.526611,404.195648 489.296814,405.251160 486.007111,405.237885 
	C483.175049,405.226471 480.342896,405.237457 477.021271,405.243317 
z"/>
<path fill="#000000" opacity="1.000000" stroke="none" 
	d="
M538.132080,429.921844 
	C536.177368,426.988770 534.260803,424.524841 532.081543,422.209717 
	C529.709900,419.690277 530.171326,417.021637 532.971924,414.996338 
	C535.617798,413.082825 538.307373,412.958832 540.330627,415.873169 
	C547.871643,426.735352 552.909363,438.425293 552.073181,452.038239 
	C551.854370,455.601257 551.002258,458.906342 549.084534,461.921783 
	C547.643738,464.187317 545.551025,464.863373 543.048157,464.203491 
	C540.435059,463.514587 540.575562,461.299713 540.771912,459.336212 
	C541.362793,453.428009 542.280151,447.617798 541.406372,441.568878 
	C540.831177,437.586487 540.473877,433.718872 538.132080,429.921844 
z"/>
<path fill="#000000" opacity="1.000000" stroke="none" 
	d="
M433.111145,379.659302 
	C435.240051,382.933075 437.280853,380.904694 438.629425,379.603546 
	C443.173157,375.219452 447.824890,372.517914 454.113617,376.222382 
	C455.433014,376.999634 457.059784,376.421692 458.441895,375.765289 
	C464.391693,372.939819 470.983124,371.297913 475.701385,366.205505 
	C477.477356,364.288666 479.566528,364.208496 481.294067,366.259827 
	C483.169312,368.486450 483.177673,370.860748 480.871521,372.847961 
	C475.872284,377.155701 469.558258,378.813202 463.655609,381.329834 
	C458.927979,383.345459 454.041443,383.654144 449.094269,383.220581 
	C444.411743,382.810211 441.570862,386.337799 437.871857,387.987091 
	C431.877686,390.659668 426.341309,387.672607 425.746826,381.105988 
	C425.531708,378.729980 424.451355,375.724701 427.770813,374.729767 
	C431.535706,373.601349 431.890320,377.041656 433.111145,379.659302 
z"/>
<path fill="#000000" opacity="1.000000" stroke="none" 
	d="
M384.679688,378.473938 
	C386.880646,369.596344 398.567627,367.243103 405.087341,369.125519 
	C408.921173,370.232513 410.741058,376.175995 408.844727,380.229156 
	C406.467346,385.310516 398.149475,390.232635 392.377075,389.973969 
	C386.195526,389.696899 384.588867,387.394897 384.679688,378.473938 
z"/>
<path fill="#000000" opacity="1.000000" stroke="none" 
	d="
M494.127502,346.838806 
	C498.383392,344.178436 502.795868,344.489105 507.045715,344.817322 
	C511.609222,345.169739 514.758423,352.008087 512.708740,357.193420 
	C510.595520,362.539703 506.091125,365.640381 500.701996,366.635498 
	C495.894958,367.523102 493.314362,363.496002 490.987122,360.094513 
	C487.879700,355.552734 488.768646,352.051483 494.127502,346.838806 
z"/>
<path fill="#000000" opacity="1.000000" stroke="none" 
	d="
M385.945374,475.611877 
	C385.611847,477.969147 384.713257,479.777557 384.896851,481.875519 
	C385.182648,485.141571 383.275391,486.947449 380.179871,487.070312 
	C376.538696,487.214844 375.616791,484.479980 375.941711,481.640106 
	C377.181427,470.804657 378.821411,460.077515 383.803986,450.110046 
	C385.405579,446.906128 386.461334,443.720459 390.409454,442.716461 
	C392.190887,442.263458 393.689697,442.319305 395.010132,443.644257 
	C396.472412,445.111542 396.248077,446.906281 395.123291,448.187500 
	C388.305084,455.954163 387.942688,465.839447 385.945374,475.611877 
z"/>
<path fill="#000000" opacity="1.000000" stroke="none" 
	d="
M392.815857,420.411011 
	C393.513184,417.378845 395.695160,416.599426 397.825165,416.937714 
	C400.306274,417.331818 400.869263,419.629578 401.059204,421.943298 
	C401.307312,424.966431 400.309082,428.193878 402.363434,431.315552 
	C405.439331,429.165070 405.841064,425.996979 406.641144,423.045349 
	C407.248322,420.805176 407.734619,418.526184 408.459717,416.325409 
	C409.641022,412.739807 412.679443,413.346649 415.126068,414.066254 
	C417.863800,414.871490 416.883575,417.138977 416.130188,419.051666 
	C414.484863,423.228973 412.920898,427.439636 411.203369,431.586853 
	C409.651428,435.334045 407.010071,437.997040 402.873627,438.695190 
	C397.721802,439.564758 395.400635,437.836945 394.560791,432.645050 
	C393.924316,428.709991 393.377167,424.760468 392.815857,420.411011 
z"/>
<path fill="#000000" opacity="1.000000" stroke="none" 
	d="
M541.989380,281.994995 
	C541.598022,284.695953 539.614746,285.523987 537.343506,286.520508 
	C532.065857,288.835999 526.709961,291.006348 525.173828,297.799164 
	C524.341064,301.481934 521.861694,301.517151 517.223450,298.584717 
	C515.049805,298.933685 514.788269,301.041168 513.785095,302.466217 
	C513.126160,303.402222 512.677917,304.670959 511.268982,304.573029 
	C509.615540,304.458099 509.303741,303.002747 508.848236,301.765198 
	C507.100159,297.015900 511.068024,288.152100 516.107361,287.815826 
	C521.897278,287.429443 525.723999,283.814758 530.443970,281.713013 
	C534.117004,280.077515 537.710693,278.025604 541.721436,281.815887 
	C542.027527,282.053162 542.003052,282.013672 541.989380,281.994995 
z"/>
<path fill="#000000" opacity="1.000000" stroke="none" 
	d="
M515.395142,414.872009 
	C511.735321,412.386414 510.556549,403.961304 513.074463,401.117828 
	C515.491089,398.388733 518.033020,399.746582 519.848816,405.060822 
	C521.457764,403.611847 522.552246,402.115784 522.657959,400.048157 
	C522.767090,397.912720 523.841980,396.236816 525.261230,394.839935 
	C526.726013,393.398224 528.611877,393.586853 530.376953,394.289490 
	C531.794739,394.853851 532.488586,396.267181 532.114380,397.537933 
	C530.189087,404.076080 528.041870,410.564636 521.620544,414.279022 
	C519.841309,415.308228 517.813049,415.309448 515.395142,414.872009 
z"/>
<path fill="#000000" opacity="1.000000" stroke="none" 
	d="
M435.087860,349.532745 
	C439.072266,353.789062 436.754150,357.277679 434.250366,360.430206 
	C431.580322,363.792145 427.746582,364.119476 423.820587,363.139130 
	C422.040466,362.694641 421.963562,361.023468 421.844635,359.509766 
	C421.199921,351.304077 425.969421,347.514496 435.087860,349.532745 
z"/>
<path fill="#000000" opacity="1.000000" stroke="none" 
	d="
M466.534424,345.827698 
	C468.927551,341.040558 472.545013,339.155396 476.103149,341.100830 
	C479.404572,342.905945 481.096100,345.842377 479.737366,349.838135 
	C477.890442,355.269440 475.195099,357.050629 470.727814,355.738892 
	C466.820831,354.591675 465.364716,351.401520 466.534424,345.827698 
z"/>
<path fill="#000000" opacity="1.000000" stroke="none" 
	d="
M447.606689,360.377991 
	C449.169159,359.719269 450.335571,358.897583 451.569672,358.778748 
	C454.159729,358.529327 456.168732,359.959259 456.849792,362.326324 
	C457.618744,364.998901 455.944275,366.625793 453.425690,367.387512 
	C452.481476,367.673096 451.521210,367.909241 450.586945,368.223450 
	C447.552979,369.243958 444.602661,368.606567 443.401947,365.799683 
	C442.152069,362.877808 444.914734,361.563965 447.606689,360.377991 
z"/>
</svg>