<svg width="12" height="12" viewBox="0 0 12 12" fill="none" xmlns="http://www.w3.org/2000/svg">
<path d="M6 0.147949C2.685 0.147949 0 2.83295 0 6.14795C0 8.80295 1.7175 11.0454 4.1025 11.8404C4.4025 11.8929 4.515 11.7129 4.515 11.5554C4.515 11.4129 4.5075 10.9404 4.5075 10.4379C3 10.7154 2.61 10.0704 2.49 9.73295C2.4225 9.56045 2.13 9.02795 1.875 8.88545C1.665 8.77295 1.365 8.49545 1.8675 8.48795C2.34 8.48045 2.6775 8.92295 2.79 9.10295C3.33 10.0104 4.1925 9.75545 4.5375 9.59795C4.59 9.20795 4.7475 8.94545 4.92 8.79545C3.585 8.64545 2.19 8.12795 2.19 5.83295C2.19 5.18045 2.4225 4.64045 2.805 4.22045C2.745 4.07045 2.535 3.45545 2.865 2.63045C2.865 2.63045 3.3675 2.47295 4.515 3.24545C4.995 3.11045 5.505 3.04295 6.015 3.04295C6.525 3.04295 7.035 3.11045 7.515 3.24545C8.6625 2.46545 9.165 2.63045 9.165 2.63045C9.495 3.45545 9.285 4.07045 9.225 4.22045C9.6075 4.64045 9.84 5.17295 9.84 5.83295C9.84 8.13545 8.4375 8.64545 7.1025 8.79545C7.32 8.98295 7.5075 9.34295 7.5075 9.90545C7.5075 10.7079 7.5 11.3529 7.5 11.5554C7.5 11.7129 7.6125 11.9004 7.9125 11.8404C9.10367 11.4384 10.1388 10.673 10.872 9.65177C11.6053 8.63058 11.9998 7.40513 12 6.14795C12 2.83295 9.315 0.147949 6 0.147949Z" fill="white"/>
</svg>
