<svg width="152" height="144" viewBox="0 0 152 144" fill="none" xmlns="http://www.w3.org/2000/svg">
<g filter="url(#filter0_bd_216_939)">
<rect x="12" y="4" width="120" height="120" rx="20" fill="#CBC5F1" fill-opacity="0.8" shape-rendering="crispEdges"/>
<rect x="12.25" y="4.25" width="119.5" height="119.5" rx="19.75" stroke="url(#paint0_linear_216_939)" stroke-width="0.5" shape-rendering="crispEdges"/>
</g>
<g filter="url(#filter1_bd_216_939)">
<rect x="4" y="12" width="120" height="120" rx="20" fill="#080808" fill-opacity="0.12" shape-rendering="crispEdges"/>
<rect x="4.25" y="12.25" width="119.5" height="119.5" rx="19.75" stroke="url(#paint1_linear_216_939)" stroke-width="0.5" shape-rendering="crispEdges"/>
<path d="M51.3295 52.762H61.3735L34.8375 79.918V69.936L51.3295 52.762ZM42.4015 69.378L62.4895 93H53.0655L37.3175 74.152L42.4015 69.378ZM28.0795 52.762H35.4575V93H28.0795V52.762ZM68.0259 52.762H75.3419V77.81C75.3419 81.1167 76.1789 83.5037 77.8529 84.971C79.5475 86.4383 81.7072 87.172 84.3319 87.172C86.9772 87.172 89.1369 86.4383 90.8109 84.971C92.4849 83.5037 93.3219 81.1167 93.3219 77.81V52.762H100.638V77.81C100.638 81.1993 99.9869 84.0927 98.6849 86.49C97.3829 88.8873 95.5126 90.7163 93.0739 91.977C90.6559 93.2377 87.7419 93.868 84.3319 93.868C80.9219 93.868 77.9975 93.2377 75.5589 91.977C73.1409 90.7163 71.2809 88.8873 69.9789 86.49C68.6769 84.0927 68.0259 81.1993 68.0259 77.81V52.762Z" fill="white"/>
</g>
<defs>
<filter id="filter0_bd_216_939" x="8" y="0" width="144" height="144" filterUnits="userSpaceOnUse" color-interpolation-filters="sRGB">
<feFlood flood-opacity="0" result="BackgroundImageFix"/>
<feGaussianBlur in="BackgroundImageFix" stdDeviation="2"/>
<feComposite in2="SourceAlpha" operator="in" result="effect1_backgroundBlur_216_939"/>
<feColorMatrix in="SourceAlpha" type="matrix" values="0 0 0 0 0 0 0 0 0 0 0 0 0 0 0 0 0 0 127 0" result="hardAlpha"/>
<feOffset dx="8" dy="8"/>
<feGaussianBlur stdDeviation="6"/>
<feComposite in2="hardAlpha" operator="out"/>
<feColorMatrix type="matrix" values="0 0 0 0 0.113725 0 0 0 0 0.0941176 0 0 0 0 0.247059 0 0 0 0.1 0"/>
<feBlend mode="normal" in2="effect1_backgroundBlur_216_939" result="effect2_dropShadow_216_939"/>
<feBlend mode="normal" in="SourceGraphic" in2="effect2_dropShadow_216_939" result="shape"/>
</filter>
<filter id="filter1_bd_216_939" x="-6" y="2" width="140" height="140" filterUnits="userSpaceOnUse" color-interpolation-filters="sRGB">
<feFlood flood-opacity="0" result="BackgroundImageFix"/>
<feGaussianBlur in="BackgroundImageFix" stdDeviation="5"/>
<feComposite in2="SourceAlpha" operator="in" result="effect1_backgroundBlur_216_939"/>
<feColorMatrix in="SourceAlpha" type="matrix" values="0 0 0 0 0 0 0 0 0 0 0 0 0 0 0 0 0 0 127 0" result="hardAlpha"/>
<feOffset dy="4"/>
<feGaussianBlur stdDeviation="2"/>
<feComposite in2="hardAlpha" operator="out"/>
<feColorMatrix type="matrix" values="0 0 0 0 0 0 0 0 0 0 0 0 0 0 0 0 0 0 0.25 0"/>
<feBlend mode="normal" in2="effect1_backgroundBlur_216_939" result="effect2_dropShadow_216_939"/>
<feBlend mode="normal" in="SourceGraphic" in2="effect2_dropShadow_216_939" result="shape"/>
</filter>
<linearGradient id="paint0_linear_216_939" x1="12" y1="4" x2="132" y2="124" gradientUnits="userSpaceOnUse">
<stop stop-color="white"/>
<stop offset="1" stop-color="white" stop-opacity="0"/>
</linearGradient>
<linearGradient id="paint1_linear_216_939" x1="10.5" y1="18" x2="116.5" y2="126" gradientUnits="userSpaceOnUse">
<stop stop-color="white"/>
<stop offset="1" stop-color="white" stop-opacity="0"/>
</linearGradient>
</defs>
</svg>
